<?xml version="1.0" standalone="no"?>
<!DOCTYPE svg PUBLIC "-//W3C//DTD SVG 20010904//EN"
 "http://www.w3.org/TR/2001/REC-SVG-20010904/DTD/svg10.dtd">
<svg version="1.0" xmlns="http://www.w3.org/2000/svg"
 width="300.000000pt" height="300.000000pt" viewBox="0 0 300.000000 300.000000"
 preserveAspectRatio="xMidYMid meet">
<metadata>
Created by potrace 1.14, written by Peter Selinger 2001-2017
</metadata>
<g transform="translate(0.000000,300.000000) scale(0.100000,-0.100000)"
fill="#000000" stroke="none">
<path d="M1358 2887 c-147 -54 -268 -212 -268 -349 l0 -38 -43 33 c-82 62
-140 81 -252 81 -139 0 -195 -23 -291 -118 -95 -96 -118 -152 -118 -291 0
-112 19 -170 81 -252 l33 -43 -38 0 c-54 0 -154 -38 -209 -79 -63 -48 -118
-122 -145 -196 -21 -59 -22 -73 -26 -599 -2 -373 0 -560 8 -605 31 -179 162
-310 342 -341 43 -7 391 -10 1108 -8 l1045 3 58 22 c116 44 206 134 250 250
22 57 22 66 22 633 l0 575 -24 67 c-29 81 -79 150 -146 200 -56 43 -150 78
-207 78 l-38 0 33 43 c102 134 114 321 30 464 -37 64 -134 148 -200 174 -47
19 -77 23 -158 23 -112 0 -170 -19 -252 -81 l-43 -33 0 38 c0 94 -72 224 -165
294 -103 78 -264 101 -387 55z m261 -200 c22 -15 53 -46 68 -69 24 -36 28 -51
28 -118 0 -67 -4 -82 -27 -118 l-28 -42 0 -227 0 -228 165 165 c117 117 165
171 165 188 0 31 27 92 53 121 30 33 115 71 157 71 65 0 113 -21 161 -69 74
-74 88 -159 42 -252 -33 -63 -90 -108 -150 -116 -36 -5 -57 -22 -204 -169
l-164 -164 228 0 227 0 42 28 c36 23 51 27 118 27 67 0 82 -4 118 -28 52 -34
92 -93 99 -146 l6 -41 -1223 0 -1223 0 6 41 c7 53 47 112 99 146 36 24 51 28
118 28 67 0 82 -4 118 -27 l42 -28 227 0 228 0 -164 164 c-147 147 -168 164
-204 169 -60 8 -117 53 -149 116 -47 93 -33 178 41 252 74 74 159 88 252 42
63 -33 108 -90 116 -150 5 -36 22 -57 169 -204 l164 -164 0 228 0 227 -27 41
c-33 51 -43 145 -21 199 22 51 62 95 111 120 61 31 158 25 216 -13z m-734
-1288 c58 -18 78 -30 135 -87 71 -71 104 -135 111 -217 l4 -40 -106 -3 -107
-3 -6 35 c-32 168 -296 144 -296 -27 0 -84 52 -141 140 -152 128 -17 242 -71
295 -140 180 -236 32 -574 -260 -593 -198 -13 -355 116 -391 321 l-6 37 110 0
110 0 6 -35 c13 -68 100 -124 171 -111 40 8 90 47 110 87 29 56 11 137 -39
177 -15 12 -69 30 -124 42 -129 29 -191 60 -246 121 -62 69 -89 143 -90 245
-1 73 2 86 37 156 84 172 257 244 442 187z m470 -1 c3 -13 37 -173 75 -357 38
-183 70 -335 72 -336 2 -2 37 158 77 356 l75 359 108 0 c107 0 108 0 103 -22
-8 -34 -125 -601 -190 -918 -31 -151 -59 -283 -61 -292 -5 -16 -19 -18 -112
-18 l-108 0 -37 177 c-160 770 -217 1048 -217 1060 0 10 24 13 105 13 100 0
105 -1 110 -22z m1029 -11 c111 -51 203 -174 214 -287 l5 -50 -104 0 -104 0
-20 52 c-26 68 -68 98 -137 98 -60 0 -101 -22 -131 -70 -21 -34 -22 -44 -22
-335 0 -346 1 -350 87 -393 65 -33 116 -24 168 28 44 44 53 83 48 190 l-3 65
-72 3 -73 3 0 104 0 105 181 0 180 0 -3 -232 c-3 -215 -5 -237 -26 -281 -30
-66 -114 -151 -181 -184 -50 -25 -67 -28 -156 -28 -93 0 -104 2 -160 32 -77
40 -137 102 -172 178 l-28 60 0 350 0 350 26 56 c48 102 134 176 238 206 68
19 179 10 245 -20z"/>
</g>
</svg>
