<svg xmlns="http://www.w3.org/2000/svg" width="1102" height="359" viewBox="0 0 1102 359" fill="none">
    <path id="h" class="duration-0_5 delay-0_3 ease-power1_inOut"
          d="M 99.3609,333.52 C 117.533,172.832 124.717,122.72 134.436,79.0485 C 143.311,39.3112 157.679,22.0 180.499,22.0 C 201.067,22.0 212.194,39.3112 211.772,62.1307 C 210.926,92.8202 193.177,137.315 160.165,176.282 C 111.664,233.366 68.9147,266.901 22.0,292.982"
          stroke="url(#paint0_linear_104_6)" stroke-width="43" stroke-linecap="round"/>
    <path id="ello" class="duration-5 delay-0_75 ease-power1_out"
          d="M 1080.21,174.05 C 1067.71,204.597 1035.08,223.69 992.731,192.795 C 977.11,181.34 957.232,170.82 933.567,170.82 C 892.575,170.82 861.303,208.431 858.345,259.988 C 855.809,306.473 880.841,337.323 918.953,336.9 C 962.262,336.478 996.534,296.754 996.534,243.929 C 996.534,196.176 969.488,170.82 935.257,170.82 C 893.843,170.82 873.981,199.134 857.829,245.04 C 841.489,291.478 814.236,335.21 764.066,335.21 C 713.817,335.21 690.151,292.553 700.716,177.007 C 704.912,130.958 715.166,90.2215 729.03,61.9782 C 740.863,37.6265 753.963,22.2038 773.825,22.2038 C 794.11,22.2038 801.294,39.6558 801.294,62.3841 C 801.294,81.5527 797.084,108.983 785.984,138.2 C 747.25,240.156 671.392,335.21 603.161,335.21 C 546.891,335.21 523.226,292.553 533.79,177.007 C 537.986,130.958 548.241,90.2215 562.104,61.9782 C 573.937,37.6265 587.038,22.2038 606.9,22.2038 C 627.184,22.2038 634.369,39.6558 634.369,62.3841 C 634.369,81.5527 630.158,108.983 618.936,138.524 C 579.188,243.148 492.682,336.9 414.584,336.9 C 357.145,336.9 330.099,301.825 330.099,251.958 C 330.099,205.473 354.609,169.129 386.727,169.129 C 412.083,169.129 426.451,188.146 426.028,213.502 C 425.606,227.448 421.38,241.816 410.989,257.835 C 380.491,304.853 320.897,335.21 266.271,335.21 C 228.813,335.21 216.45,314.08 220.776,287.034 C 224.486,265.482 227.671,246.887 230.419,228.716 C 235.3,197.866 218.111,176.314 191.064,176.314 C 136.105,176.314 109.381,228.716 99.1624,335.21"
          stroke="url(#paint1_linear_104_6)" stroke-width="43" stroke-linecap="round"/>


    <defs>
        <linearGradient id="paint0_linear_104_6" x1="-6.10057" y1="176.979" x2="103.747" y2="333.661"
                        gradientUnits="userSpaceOnUse">
            <stop stop-color="#077B93"/>
            <stop offset="0.626509" stop-color="#9BC967"/>
        </linearGradient>
        <linearGradient id="paint1_linear_104_6" x1="99.1624" y1="179.554" x2="1080.21" y2="179.554"
                        gradientUnits="userSpaceOnUse">
            <stop offset="0.211469" stop-color="#D7DA0E"/>
            <stop offset="0.373242" stop-color="#FF9F39"/>
            <stop offset="0.516702" stop-color="#F65645"/>
            <stop offset="0.757836" stop-color="#9274B3"/>
            <stop offset="0.984375" stop-color="#7BB5DD"/>Í
        </linearGradient>
    </defs>
</svg>
