<svg xmlns="http://www.w3.org/2000/svg" width="54" height="54" viewBox="0 0 54 54" fill="none">
    <path id="outline"
        d="M 1.84644,3.33409 C 1.9718,1.98399 2.89028,0.834087 4.34643,0.834087 C 5.60793,0.834087 6.97143,1.98783 6.84643,3.33409 C 5.44163,18.4633 4.83765,33.6582 5.03716,48.8513 L 2.53716,46.3513 C 17.927,46.9095 33.3168,47.4677 48.7067,48.0259 L 46.296,49.8613 C 48.7709,35.054 49.4905,19.9796 48.5472,4.99917 L 51.0472,7.49917 C 35.5829,5.72875 20.0226,4.89743 4.45769,5.01009 C 1.23426,5.03342 1.2416,0.0333667 4.45769,0.0100867 C 20.0226,-0.102583 35.5829,0.728747 51.0472,2.49918 C 52.4674,2.66177 53.4548,3.53111 53.5472,4.99918 C 54.5195,20.4404 53.6676,35.9328 51.1174,51.1905 C 50.9435,52.2306 49.7048,53.0621 48.7067,53.0259 C 33.3168,52.4677 17.927,51.9095 2.53716,51.3513 C 1.169,51.3016 0.0553795,50.2391 0.0371595,48.8513 C -0.162351,33.6582 0.44163,18.4633 1.84644,3.33409"
        fill="#01010C" />
    <path id="line1" class="animate"
        d="M 39.5,14.4082 C 37.5,20.4082 35.0,20.4082 33.0,17.4082 C 31.4,15.0082 29.6667,16.4082 29.0,17.4082 C 24.6,23.0082 17.5,16.4082 16.5,14.4082 C 15.5,12.4082 15.0,18.4082 15.0,18.4082"
        stroke="#01010C" stroke-width="4.5" stroke-linecap="round" />
    <path id="line2" class="animate"
        d="M 29.0,33.1043 C 27.5,33.6043 27.5,32.6043 26.0,30.1043 C 24.8,28.1043 23.1667,29.271 22.5,30.1043 C 21.6667,31.271 19.7,33.1043 18.5,31.1043 C 16.5,27.9043 15.3333,29.771 15.0,31.1043"
        stroke="#01010C" stroke-width="4.5" stroke-linecap="round" />
</svg>